<?xml version="1.0" standalone="no"?>
<!DOCTYPE svg PUBLIC "-//W3C//DTD SVG 20010904//EN"
 "http://www.w3.org/TR/2001/REC-SVG-20010904/DTD/svg10.dtd">
<svg version="1.0" xmlns="http://www.w3.org/2000/svg"
 width="190.000000pt" height="171.000000pt" viewBox="0 0 190.000000 171.000000"
 preserveAspectRatio="xMidYMid meet">
<g transform="translate(0.000000,171.000000) scale(0.066667,-0.066667)"
fill="#000000" stroke="none">
<path d="M1044 2528 c-158 -65 -255 -197 -254 -345 2 -143 62 -210 295 -328
239 -121 295 -177 295 -295 0 -101 -60 -180 -136 -180 -22 0 -49 -10 -59 -22
-30 -37 -90 -29 -90 11 -1 51 -63 150 -116 184 -61 38 -60 46 4 84 28 17 52
41 52 54 0 32 -67 13 -147 -42 -38 -26 -84 -44 -112 -44 -360 -3 -583 -724
-337 -1089 177 -264 505 -232 705 69 l25 38 -6 -60 c-25 -229 -25 -233 6 -233
47 0 79 80 88 224 11 190 105 370 187 358 45 -6 48 -34 25 -257 -23 -227 -14
-270 55 -277 49 -5 123 61 160 141 20 45 41 47 41 4 0 -17 26 -58 58 -90 111
-110 260 -57 374 134 l30 50 10 -267 c12 -335 15 -350 62 -350 l36 0 0 278 0
277 65 0 c43 0 79 10 104 30 l37 29 10 -236 c15 -351 19 -378 63 -378 l36 0 0
277 0 276 58 -2 c84 -3 204 91 175 138 -15 25 -35 19 -46 -15 -15 -46 -95 -80
-146 -60 -50 19 -59 151 -16 250 132 312 160 606 57 606 -109 0 -187 -249
-187 -602 0 -195 -19 -242 -104 -260 -122 -27 -140 89 -54 337 28 82 62 201
76 265 13 64 25 118 27 119 1 1 29 14 61 29 36 17 74 52 98 91 24 39 57 69 87
80 52 19 117 96 102 121 -15 24 -35 17 -46 -15 -5 -17 -27 -40 -49 -51 l-41
-21 0 100 c1 242 -191 363 -282 178 -51 -103 2 -243 114 -303 65 -35 66 -40
25 -107 -39 -63 -62 -64 -85 -4 -15 41 -24 46 -63 40 -53 -8 -58 0 -76 142
-11 91 -8 120 30 253 111 385 123 568 38 568 -111 0 -187 -255 -188 -631 l0
-173 -64 -104 c-107 -175 -125 -127 -101 278 7 125 7 128 -28 133 -56 7 -64
-14 -77 -190 -16 -207 -65 -318 -143 -318 -70 0 -79 97 -42 425 l9 87 -50 -5
c-128 -12 -114 -575 15 -594 62 -10 106 12 150 73 l44 61 16 -59 c38 -140 146
-103 238 80 37 73 47 84 55 60 5 -17 25 -61 44 -99 33 -63 34 -71 13 -111 -37
-70 -63 -259 -63 -460 l-1 -190 -60 -90 c-109 -162 -228 -188 -292 -63 -36 68
-30 80 81 156 148 101 192 192 124 254 -106 96 -301 -54 -328 -253 -9 -70 -98
-216 -139 -229 -17 -6 -19 15 -8 134 28 311 13 373 -91 373 -60 0 -117 -44
-173 -133 -52 -83 -53 -79 -13 118 22 104 30 193 27 271 -5 113 -4 117 36 144
113 75 161 233 104 344 -51 99 -105 138 -426 304 -298 155 -118 554 221 490
156 -29 217 -254 93 -339 -7 -5 -3 -17 9 -27 29 -24 91 27 132 107 115 225
-155 392 -443 274z m1326 -217 c0 -67 -58 -391 -75 -419 -12 -19 -14 -12 -9
28 4 29 12 107 17 173 11 146 35 262 53 262 8 0 14 -20 14 -44z m175 -535 c26
-85 25 -216 0 -216 -61 0 -130 112 -130 210 0 123 93 127 130 6z m-1738 -276
c-1 -82 37 -133 126 -171 l75 -31 -10 -74 c-17 -132 -79 -219 -156 -219 -76 0
-102 147 -46 257 37 73 28 91 -23 43 -94 -87 -104 -237 -21 -307 127 -107 317
28 351 251 19 124 33 40 42 -255 l10 -311 -58 -83 c-136 -195 -323 -241 -473
-117 -260 214 -202 903 89 1053 75 40 95 32 94 -36z m182 -85 c20 -73 12 -78
-43 -23 -36 35 -46 59 -46 103 l1 58 36 -42 c20 -22 43 -66 52 -96z m1708 -70
c5 -62 -31 -268 -65 -370 -22 -65 -22 -60 -16 143 6 212 24 299 58 288 10 -3
21 -31 23 -61z m-322 -77 c-2 -42 -18 -140 -38 -218 l-34 -142 -5 112 c-9 206
9 333 47 327 29 -4 32 -13 30 -79z m-1104 -127 c-12 -258 -35 -278 -49 -43
-11 196 -7 222 34 222 20 0 22 -22 15 -179z m709 -281 c0 -40 -127 -185 -162
-185 -42 0 28 214 76 236 46 21 86 -3 86 -51z"/>
</g>
</svg>
